<svg width="22" height="13" fill="none" xmlns="http://www.w3.org/2000/svg"><path d="M5.313 10.784c.662 0 1.21-.128 1.648-.384a2.996 2.996 0 0 0 1.04-.992c.267-.416.454-.885.56-1.408a8.22 8.22 0 0 0 .16-1.616V.64h1.44v5.744a8.63 8.63 0 0 1-.272 2.192 5.112 5.112 0 0 1-.832 1.808 4.111 4.111 0 0 1-1.504 1.248c-.608.299-1.35.448-2.224.448-.906 0-1.67-.16-2.288-.48a4.258 4.258 0 0 1-1.504-1.264 5.455 5.455 0 0 1-.816-1.824 9.433 9.433 0 0 1-.24-2.128V.64h1.44v5.744c0 .565.054 1.115.16 1.648.118.523.304.987.56 1.392.267.405.614.736 1.04.992.438.245.982.368 1.632.368ZM15.707.64h1.216L21.563 12h-1.536l-1.344-3.328h-4.768L12.587 12H11.05L15.707.64Zm2.656 6.912-2.048-5.248-2.112 5.248h4.16Z" fill="#F1F5F4"/></svg>